<?xml version="1.0" encoding="UTF-8"?>
<svg width="24px" height="24px" viewBox="0 0 24 24" version="1.1" xmlns="http://www.w3.org/2000/svg" xmlns:xlink="http://www.w3.org/1999/xlink">
    <!-- Generator: Sketch 51.3 (57544) - http://www.bohemiancoding.com/sketch -->
    <title>Group</title>
    <desc>Created with Sketch.</desc>
    <defs></defs>
    <g id="Page-1" stroke="none" stroke-width="1" fill="none" fill-rule="evenodd">
        <g id="Free-Pack-/-skunk" fill="#FFFFFF" fill-rule="nonzero">
            <g id="Group">
                <g id="Bold">
                    <path d="M19.5,11.91552 C18.402134,11.8552421 17.3518062,12.3522935 16.733,13.22496 C16.2969432,13.906786 16.0766788,14.695569 16.099,15.49536 C15.2846328,15.635752 14.4454019,15.5487885 13.681,15.2448 C13.76,15.17472 17,13.776 17,9.12 C17.0003243,5.61851782 14.6736393,2.50714317 11.2177197,1.38760821 C7.76180015,0.268073264 3.94710077,1.38996455 1.73742453,4.17573369 C-0.472251713,6.96150283 -0.584284709,10.7900969 1.459,13.69056 C1.79402539,14.1831377 2.42675689,14.4053354 3.01378888,14.2365585 C3.60082086,14.0677816 4.00216593,13.5482778 4,12.96 C4,10.41696 5.644,8.64 8,8.64 C9.231,8.64 9.543,9.024 9.644,9.15552 C10.462,10.17408 9.68,13.01472 8.923,15.76128 C8.487,17.34336 7.7,21.06336 7.7,21.06336 C7.56780416,21.7146067 7.50083221,22.3765038 7.5,23.04 C7.5,23.5701934 7.94771525,24 8.5,24 C9.05228475,24 9.5,23.5701934 9.5,23.04 C9.5,22.8336 9.506,22.656 9.519,22.49184 C9.52904696,22.3563468 9.59842388,22.2312842 9.70992902,22.147661 C9.82143416,22.0640379 9.96462575,22.029685 10.104,22.05312 C11.1455118,22.2245679 12.2002874,22.3109571 13.257,22.31136 C13.9821072,22.3144936 14.7064486,22.2657184 15.424,22.16544 C15.5691927,22.1439946 15.7168631,22.1849301 15.8277985,22.2773762 C15.9387338,22.3698223 16.0017084,22.5044244 16,22.64544 L16,23.04 C16,23.5701934 16.4477153,24 17,24 C17.5522847,24 18,23.5701934 18,23.04 L18,21.37248 C19.1832462,20.784016 20.0584099,19.7498159 20.416,18.51744 C22.116,18.09888 24,16.64544 24,15.27552 C24,13.68576 21.317,11.91552 19.5,11.91552 Z M8.5,4.56 C6.39591464,4.5296629 4.34095485,5.17126623 2.658,6.384 C3.74922716,4.23365523 6.02485862,2.87137158 8.5164617,2.87689144 C11.0080648,2.8824113 13.2771226,4.25476318 14.358,6.40992 C12.6925354,5.15143496 10.6184682,4.49645743 8.5,4.56 Z M20,15.84 C19.4477153,15.84 19,15.4101934 19,14.88 C19,14.3498066 19.4477153,13.92 20,13.92 C20.5522847,13.92 21,14.3498066 21,14.88 C21,15.4101934 20.5522847,15.84 20,15.84 Z" id="Shape"></path>
                </g>
            </g>
        </g>
    </g>
</svg>