<?xml version="1.0" encoding="UTF-8"?>
<svg width="675px" height="525px" viewBox="0 0 675 525" version="1.1" xmlns="http://www.w3.org/2000/svg" xmlns:xlink="http://www.w3.org/1999/xlink">
    <!-- Generator: Sketch 51.3 (57544) - http://www.bohemiancoding.com/sketch -->
    <title>Artwork</title>
    <desc>Created with Sketch.</desc>
    <defs>
        <linearGradient x1="31.669258%" y1="-9.21335019%" x2="100%" y2="50%" id="linearGradient-1">
            <stop stop-color="#CFDDF3" offset="0%"></stop>
            <stop stop-color="#A1B8E3" offset="100%"></stop>
        </linearGradient>
        <linearGradient x1="50%" y1="0%" x2="50%" y2="100%" id="linearGradient-2">
            <stop stop-color="#CFDDF3" offset="0%"></stop>
            <stop stop-color="#A1B8E3" offset="100%"></stop>
        </linearGradient>
        <linearGradient x1="227.604499%" y1="-30.2653238%" x2="50%" y2="100%" id="linearGradient-3">
            <stop stop-color="#CFDDF3" offset="0%"></stop>
            <stop stop-color="#A1B8E3" offset="100%"></stop>
        </linearGradient>
        <linearGradient x1="203.727651%" y1="-74.4726372%" x2="-41.6938158%" y2="165.563818%" id="linearGradient-4">
            <stop stop-color="#D2E0F9" stop-opacity="0" offset="0%"></stop>
            <stop stop-color="#B1C6E7" stop-opacity="0.464588995" offset="100%"></stop>
        </linearGradient>
        <linearGradient x1="106.29979%" y1="8.36366732%" x2="29.7308369%" y2="32.9924024%" id="linearGradient-5">
            <stop stop-color="#91D0FF" offset="0%"></stop>
            <stop stop-color="#6DB4FF" offset="48.1467136%"></stop>
            <stop stop-color="#2881EE" offset="100%"></stop>
        </linearGradient>
        <linearGradient x1="37.5257364%" y1="50%" x2="100%" y2="19.4975354%" id="linearGradient-6">
            <stop stop-color="#FFCCB5" offset="0%"></stop>
            <stop stop-color="#DF1E1E" offset="100%"></stop>
        </linearGradient>
        <path d="M40.2776566,37.7039302 C41.5535023,42.1668685 40.9765905,45.3878144 38.5457825,47.3668858 C34.8993077,50.335493 31.2377663,55.3847442 27.6278193,55.8003539 C24.0180475,56.2160816 20.109571,58.2227581 19.4765973,63.3557683 C19.1709725,65.8357421 6.64438376,78.6559395 2.16906912,96.2946381 C1.03600599,100.760644 2.41433983,107.632655 6.30415823,116.910556 L16.653181,111.135786 L31.3929,86.9339226 C47.7627933,81.1694169 56.9911917,77.5984529 59.0772191,76.2211484 C62.2068735,74.1552507 72.3449635,65.3147848 70.390331,61.9999345 C68.435611,58.6852021 74.7951303,37.625008 78.5718614,33.5313171 C82.3491181,29.4376262 85.4425074,19.462049 85.5182785,15.7788951 C85.5933489,12.0957412 86.9029193,1.06892981 77.4756765,1.42071755 C71.1906143,1.65536068 58.791216,13.7498042 40.2776566,37.7039302 Z" id="path-7"></path>
        <linearGradient x1="0%" y1="32.953458%" x2="107.402793%" y2="64.9470607%" id="linearGradient-9">
            <stop stop-color="#FFCCB5" offset="0%"></stop>
            <stop stop-color="#DF1E1E" offset="100%"></stop>
        </linearGradient>
        <linearGradient x1="5.69749539%" y1="-6.56030944%" x2="17.3178416%" y2="43.6460947%" id="linearGradient-10">
            <stop stop-color="#2D6DC0" offset="0%"></stop>
            <stop stop-color="#143B8C" offset="100%"></stop>
        </linearGradient>
        <linearGradient x1="57.4988905%" y1="38.1833915%" x2="66.0962239%" y2="88.7076613%" id="linearGradient-11">
            <stop stop-color="#174293" stop-opacity="0" offset="0%"></stop>
            <stop stop-color="#051E4B" offset="100%"></stop>
        </linearGradient>
        <path d="M106.00774,45.9513742 C89.4920684,41.7771805 81.811937,45.5164262 75.8317157,32.504981 C72.2995414,24.8201607 79.1769937,1.24544271 90.7590449,0.711998309 C93.6091213,13.8895104 107.378006,15.0225691 115.356234,16.1174664 C158.19347,21.9963247 162.675945,61.6993624 149.851751,85.0857235 C145.722833,92.6147467 141.903048,98.0249302 138.495502,102.080671 C136.33249,104.655699 133.504948,107.757636 132.55014,109.230063 C132.231074,109.721262 129.468007,115.922334 128.990005,115.801548 C127.546525,115.436854 128.125886,115.363099 128.834197,108.944611 C129.543152,102.526239 129.938559,100.799051 131.223103,95.5762909 C131.602322,94.0337252 138.78578,82.1846309 133.269121,77.8944355 C129.591899,75.0343053 124.623328,76.7812161 118.36451,83.1351679 L114.563488,81.6836296 C117.074999,76.0238207 118.661686,71.8454258 119.325572,69.1487949 C120.320482,65.1036736 122.523504,50.1256846 106.00774,45.9513742 Z" id="path-12"></path>
        <linearGradient x1="-8.14988977%" y1="26.6868733%" x2="50%" y2="100%" id="linearGradient-13">
            <stop stop-color="#2D6DC0" offset="0%"></stop>
            <stop stop-color="#143B8C" offset="100%"></stop>
        </linearGradient>
        <linearGradient x1="38.3761593%" y1="59.0460022%" x2="31.1679871%" y2="80.9554112%" id="linearGradient-14">
            <stop stop-color="#2E7DE7" stop-opacity="0" offset="0%"></stop>
            <stop stop-color="#00357E" stop-opacity="0.5" offset="100%"></stop>
        </linearGradient>
        <path d="M127.655422,1.66327611 C145.01202,5.67043636 156.674267,12.3492863 162.64145,21.7002748 C171.591958,35.7264584 176.07693,72.9849209 176.07693,85.0700169 C176.07693,97.1551129 177.504218,126.801603 176.07693,134.889866 C174.64982,142.97813 168.095602,148.986401 154.531909,148.986401 C145.489387,148.986401 94.2371989,131.937222 0.776056575,97.8385649 C13.0672449,91.6773184 19.4085472,87.4212355 19.799607,85.0700169 C20.3862858,81.5433387 48.9083265,17.232241 57.9289142,10.6807712 C66.9496803,4.12945116 85.67472,1.02892008 93.1817121,1.02892008 C92.0843196,4.11762622 89.6422022,6.60984609 93.0941561,10.6807712 C96.5461099,14.7518461 103.319843,15.4629894 110.029736,12.6372761 C114.502761,10.7535171 120.37793,7.09556702 127.655422,1.66327611 Z" id="path-15"></path>
        <filter x="-6.4%" y="-7.7%" width="112.9%" height="115.4%" filterUnits="objectBoundingBox" id="filter-17">
            <feGaussianBlur stdDeviation="8" in="SourceAlpha" result="shadowBlurInner1"></feGaussianBlur>
            <feOffset dx="-7" dy="1" in="shadowBlurInner1" result="shadowOffsetInner1"></feOffset>
            <feComposite in="shadowOffsetInner1" in2="SourceAlpha" operator="arithmetic" k2="-1" k3="1" result="shadowInnerInner1"></feComposite>
            <feColorMatrix values="0 0 0 0 0.0901960784   0 0 0 0 0.254901961   0 0 0 0 0.57254902  0 0 0 0.204200634 0" type="matrix" in="shadowInnerInner1"></feColorMatrix>
        </filter>
        <linearGradient x1="50%" y1="100%" x2="50%" y2="3.061617e-15%" id="linearGradient-18">
            <stop stop-color="#70B8F9" stop-opacity="0.27587183" offset="0%"></stop>
            <stop stop-color="#3D82F0" offset="100%"></stop>
        </linearGradient>
        <linearGradient x1="55.2458064%" y1="54.3672421%" x2="100%" y2="81.9563837%" id="linearGradient-19">
            <stop stop-color="#3D82F0" stop-opacity="0" offset="0%"></stop>
            <stop stop-color="#3D82F0" offset="100%"></stop>
        </linearGradient>
        <linearGradient x1="50%" y1="75.4955232%" x2="18.9855359%" y2="37.2061207%" id="linearGradient-20">
            <stop stop-color="#DEA085" offset="0%"></stop>
            <stop stop-color="#A43232" offset="100%"></stop>
        </linearGradient>
        <linearGradient x1="100%" y1="32.1262606%" x2="0%" y2="50%" id="linearGradient-21">
            <stop stop-color="#FFCCB5" offset="0%"></stop>
            <stop stop-color="#DF1E1E" offset="100%"></stop>
        </linearGradient>
        <linearGradient x1="94.0846112%" y1="2.4752427%" x2="15.1957648%" y2="62.0220602%" id="linearGradient-22">
            <stop stop-color="#164898" offset="0%"></stop>
            <stop stop-color="#223762" offset="100%"></stop>
        </linearGradient>
        <linearGradient x1="50%" y1="59.1705852%" x2="16.349553%" y2="100%" id="linearGradient-23">
            <stop stop-color="#233582" stop-opacity="0" offset="0%"></stop>
            <stop stop-color="#000000" offset="100%"></stop>
        </linearGradient>
        <path d="M90.1036497,35.4723653 C93.1615561,40.1492702 119.931605,62.6949362 146.762813,48.0575696 C173.593804,33.4202892 137.902353,6.84793066 121.717639,3.81630951 C105.532925,0.78477463 91.5952585,2.46982326 81.8057364,16.2396076 C72.0162143,30.0094782 67.105379,53.6091298 86.257074,85.6236736 C87.100082,80.5434266 87.5216942,77.157803 87.5216942,75.4669751 C79.9004172,68.3984829 77.9950979,61.8115687 81.8057364,55.7062326 C87.5216942,46.5482283 89.4125087,64.5039374 90.1036497,67.3884025 C92.3788403,67.3884025 93.8108064,66.9863543 94.3996564,66.1820854 C92.8316269,61.6502664 92.2598796,57.4592524 92.6844144,53.6091298 C93.3211084,47.8338165 95.2026139,46.5482283 90.1036497,35.4723653 Z" id="path-24"></path>
        <linearGradient x1="92.0374716%" y1="94.8216751%" x2="50%" y2="26.1786398%" id="linearGradient-25">
            <stop stop-color="#363471" offset="0%"></stop>
            <stop stop-color="#1E1F48" offset="100%"></stop>
        </linearGradient>
        <linearGradient x1="103.370367%" y1="27.3792118%" x2="82.0550918%" y2="27.3792118%" id="linearGradient-26">
            <stop stop-color="#FF7575" stop-opacity="0.5" offset="0%"></stop>
            <stop stop-color="#000000" stop-opacity="0" offset="100%"></stop>
        </linearGradient>
        <path d="M39.021792,373.079521 C39.021792,366.023551 30.9584845,319.807321 47.5778189,305.922276 C64.1971534,292.037232 84.7542133,312.292806 160.465138,315.361778 C161.711817,346.401051 161.711817,368.252932 160.465138,380.917419 C159.218575,393.581906 113.486037,411.535111 39.021792,373.079521 Z" id="path-27"></path>
        <linearGradient x1="87.4513875%" y1="18.047227%" x2="41.0666815%" y2="73.5728548%" id="linearGradient-28">
            <stop stop-color="#2FE0D6" offset="0%"></stop>
            <stop stop-color="#39A383" offset="100%"></stop>
        </linearGradient>
        <path d="M42.1800333,181.922136 C38.3717699,179.747311 25.6252439,184.939105 25.6252439,195.438971 C18.8559523,172.082947 0.0704215417,140.46964 0.0704215417,105.91973 C8.68202662,75.8002662 31.1480197,28.3159687 36.1653176,20.8634239 C39.5102696,15.8949894 56.0835424,8.94046364 85.8846154,6.02536998e-05 C92.5503127,7.38506258 100.450032,11.0776706 109.583513,11.0776706 C123.283474,11.0776706 124.003429,2.56090402 127.663329,2.11653425 C131.323489,1.67195074 152.057974,11.0776706 162.284922,21.0844332 C172.51187,31.090982 183.461116,70.4477372 210.362068,100.998533 C237.26328,131.549328 246.91213,152.864543 260.259402,164.343561 C255.362877,168.788327 248.729716,171.377385 248.729716,181.922136 C243.898784,178.332124 216.944213,159.539921 194.098797,137.665771 C171.253642,115.791835 161.121959,97.6000338 157.673933,95.1375114 C153.708977,92.305429 162.671709,179.923862 162.284922,195.438971 C161.897615,210.954508 109.271429,211.8394 92.814244,211.8394 C76.356799,211.8394 50.9051267,206.065372 44.3721759,200.371283 C43.2954472,199.432964 46.1175769,76.2428598 44.3721759,81.4118838 C39.9439743,94.5260512 29.6601339,100.998533 29.6601339,109.635209 C29.6601339,129.705435 42.2036103,183.335348 42.1800333,181.922136 Z" id="path-29"></path>
        <linearGradient x1="0%" y1="107.337653%" x2="100%" y2="6.30084103%" id="linearGradient-31">
            <stop stop-color="#51C897" stop-opacity="0" offset="0%"></stop>
            <stop stop-color="#45B4B4" offset="100%"></stop>
        </linearGradient>
        <linearGradient x1="108.826068%" y1="33.9339821%" x2="37.5483059%" y2="50%" id="linearGradient-32">
            <stop stop-color="#EAF0F7" stop-opacity="0.115545743" offset="0%"></stop>
            <stop stop-color="#D1DDED" offset="100%"></stop>
        </linearGradient>
        <linearGradient x1="16.204449%" y1="50%" x2="42.225093%" y2="50%" id="linearGradient-33">
            <stop stop-color="#297E72" offset="0%"></stop>
            <stop stop-color="#4AB2AB" offset="100%"></stop>
        </linearGradient>
        <path d="M88.392068,104.638985 C88.392068,109.418451 95.5622271,122.778457 109.408215,122.270137 C123.254157,121.761913 126.039356,121.37537 127.612853,114.248864 C127.612853,124.807167 128.152278,127.923821 125.59877,134.886406 C123.045171,141.848848 107.130365,145.666284 98.2043033,139.882881 C89.278151,134.099477 84.6264517,130.637141 85.9322179,120.078837 C87.2379842,109.520439 88.392068,99.8594715 88.392068,104.638985 Z" id="path-34"></path>
        <linearGradient x1="0%" y1="17.4043791%" x2="59.3801987%" y2="36.5704597%" id="linearGradient-35">
            <stop stop-color="#91D0FF" offset="0%"></stop>
            <stop stop-color="#6DB4FF" offset="48.1467136%"></stop>
            <stop stop-color="#2881EE" offset="100%"></stop>
        </linearGradient>
        <linearGradient x1="73.9598569%" y1="50%" x2="22.3492286%" y2="67.9138885%" id="linearGradient-36">
            <stop stop-color="#363471" offset="0%"></stop>
            <stop stop-color="#1E1F48" offset="100%"></stop>
        </linearGradient>
        <linearGradient x1="72.1072699%" y1="37.4736171%" x2="50%" y2="75.9379045%" id="linearGradient-37">
            <stop stop-color="#FF7575" stop-opacity="0.5" offset="0%"></stop>
            <stop stop-color="#000000" stop-opacity="0" offset="100%"></stop>
        </linearGradient>
        <path d="M163.405443,197.763532 C174.015143,202.19899 181.664076,206.935585 186.352452,211.973318 C193.384804,219.529738 227.584423,278.304511 231.616672,281.783659 C235.649027,285.263045 263.40041,287.898915 267.578688,289.28742 C265.441754,292.422259 261.284202,302.102059 263.421242,310.615976 C256.826025,313.981501 242.339093,310.976534 212.705824,307.611008 C190.662272,288.919745 179.216366,259.439966 174.503035,245.366576 C169.789598,231.293304 166.090542,215.425662 163.405443,197.763532 Z" id="path-38"></path>
        <linearGradient x1="111.318611%" y1="44.7550213%" x2="50%" y2="75.9379045%" id="linearGradient-39">
            <stop stop-color="#FF7575" stop-opacity="0.5" offset="0%"></stop>
            <stop stop-color="#000000" stop-opacity="0" offset="100%"></stop>
        </linearGradient>
        <path d="M177.963617,207.843037 C186.529281,222.694884 199.742245,252.516781 203.494286,265.390849 C207.518263,279.198448 191.876331,315.557801 192.057979,324.101543 C192.209466,331.226128 184.97683,328.73839 120.727808,335.292835 C118.742173,322.731049 118.742173,307.024137 120.727808,288.172386 C123.70621,259.894329 111.569274,221.849753 114.934203,215.461599 C118.299132,209.073445 126.4852,195.489006 130.078726,195.489006 C133.672155,195.489006 169.397952,192.991334 177.963617,207.843037 Z" id="path-40"></path>
        <linearGradient x1="50%" y1="0%" x2="43.2115203%" y2="60.2836879%" id="linearGradient-41">
            <stop stop-color="#0041B2" offset="0%"></stop>
            <stop stop-color="#2D64D7" stop-opacity="0" offset="100%"></stop>
        </linearGradient>
        <linearGradient x1="100%" y1="50%" x2="26.6684475%" y2="50%" id="linearGradient-42">
            <stop stop-color="#FFCCB5" offset="0%"></stop>
            <stop stop-color="#DF1E1E" offset="100%"></stop>
        </linearGradient>
        <path d="M31.8957081,17.3710579 C30.2949882,24.9532744 31.6763942,30.4389095 31.6763942,39.0686461 C31.6763942,50.6031317 8.44119512,45.9098924 7.64814791,37.1658996 C6.85510071,28.4220095 7.79178771,16.6991347 4.519698,8.75606575 C1.2476083,0.812945455 33.496428,9.78889281 31.8957081,17.3710579 Z" id="path-43"></path>
        <linearGradient x1="100%" y1="32.1262606%" x2="0%" y2="64.9067919%" id="linearGradient-45">
            <stop stop-color="#FFCCB5" offset="0%"></stop>
            <stop stop-color="#DF1E1E" offset="100%"></stop>
        </linearGradient>
        <linearGradient x1="0%" y1="100%" x2="64.4576285%" y2="39.1077536%" id="linearGradient-46">
            <stop stop-color="#98C7FF" offset="0%"></stop>
            <stop stop-color="#FFFFFF" offset="100%"></stop>
        </linearGradient>
        <polygon id="path-47" points="1.22334715 75.8441302 9.99613889 3.69922326 129.629421 1.26842791 119.169181 71.7033209"></polygon>
        <linearGradient x1="72.8421053%" y1="27.9286529%" x2="0%" y2="50%" id="linearGradient-49">
            <stop stop-color="#319EFF" offset="0%"></stop>
            <stop stop-color="#3A9EFF" stop-opacity="0" offset="100%"></stop>
        </linearGradient>
        <linearGradient x1="50%" y1="69.9897551%" x2="100%" y2="36.6087379%" id="linearGradient-50">
            <stop stop-color="#4794D8" offset="0%"></stop>
            <stop stop-color="#3AA0FF" stop-opacity="0" offset="100%"></stop>
        </linearGradient>
        <linearGradient x1="77.4183961%" y1="0%" x2="-14.6506261%" y2="75.4811061%" id="linearGradient-51">
            <stop stop-color="#FFCCB5" offset="0%"></stop>
            <stop stop-color="#DF1E1E" offset="100%"></stop>
        </linearGradient>
        <linearGradient x1="67.2589212%" y1="58.4813332%" x2="50%" y2="92.4237546%" id="linearGradient-52">
            <stop stop-color="#FF7575" stop-opacity="0.5" offset="0%"></stop>
            <stop stop-color="#000000" stop-opacity="0" offset="100%"></stop>
        </linearGradient>
        <path d="M84.1670642,253.678904 C74.9127385,277.667207 82.2288906,295.874249 86.2912745,316.65796 C90.3537753,337.441672 92.2020898,341.939529 98.6763971,346.166521 C105.150821,350.393513 121.026763,356.28177 182.046998,363.424925 C182.046998,358.484226 181.891382,346.210697 189.866853,335.904289 C178.591046,335.904289 138.508937,324.698012 124.727721,321.186079 C112.346225,311.567441 124.727721,296.145655 124.727721,267.211789 C124.727721,238.278193 93.42139,229.690601 84.1670642,253.678904 Z" id="path-53"></path>
        <linearGradient x1="94.0846112%" y1="2.4752427%" x2="15.1957648%" y2="62.0220602%" id="linearGradient-54">
            <stop stop-color="#9CC2FF" offset="0%"></stop>
            <stop stop-color="#6494F6" offset="100%"></stop>
        </linearGradient>
        <linearGradient x1="50%" y1="59.1705852%" x2="16.349553%" y2="100%" id="linearGradient-55">
            <stop stop-color="#8AA0FF" stop-opacity="0" offset="0%"></stop>
            <stop stop-color="#3662BB" offset="100%"></stop>
        </linearGradient>
        <linearGradient x1="90.7724744%" y1="50%" x2="12.8204899%" y2="63.1418639%" id="linearGradient-56">
            <stop stop-color="#FFEBBE" offset="0%"></stop>
            <stop stop-color="#D9B978" offset="100%"></stop>
        </linearGradient>
        <path d="M121.485917,116.027589 C130.133136,122.805422 150.253076,124.792988 163.948155,118.244763 C177.643366,111.696538 180.985259,84.8868736 163.948155,76.6382309 C157.468112,73.5009793 144.597564,75.5318359 146.382587,84.989348 C131.476712,79.1466622 115.267851,84.2632592 108.841133,88.1605751 C98.8277879,94.2331433 91.0227406,100.849593 86.9187933,114.759263 C82.8148461,128.668658 89.5149489,142.501608 86.2174918,149.585221 C82.9200347,156.66856 73.2058076,162.818669 78.3994451,184.586537 C83.5929499,206.354131 71.1133105,202.871371 68.3000128,216.149206 C65.4865825,229.426767 74.4476433,235.761823 68.3000128,244.609147 C62.1522497,253.456196 50.3668816,290.806752 72.4408358,310.810635 C94.5146573,330.814792 135.648309,345.389175 144.995503,302.326904 C154.34283,259.264633 110.496029,249.863564 123.363129,228.329688 C136.230096,206.796086 127.70637,186.831658 130.399756,180.674973 C133.713396,173.10036 130.150646,161.541849 123.857767,145.87751 C118.029417,131.36916 126.419965,127.495682 121.485917,116.027589 Z" id="path-57"></path>
        <linearGradient x1="31.7160767%" y1="114.174349%" x2="42.1290688%" y2="0%" id="linearGradient-58">
            <stop stop-color="#55A7FF" offset="0%"></stop>
            <stop stop-color="#3F85DB" offset="100%"></stop>
        </linearGradient>
        <linearGradient x1="39.9744282%" y1="21.6577011%" x2="65.3375478%" y2="21.6577008%" id="linearGradient-59">
            <stop stop-color="#002B64" offset="0%"></stop>
            <stop stop-color="#0F3177" offset="100%"></stop>
        </linearGradient>
        <path d="M144.697541,154.346131 L223.713358,122.452871 C225.318247,121.805023 226.101459,119.960651 225.462081,118.333421 C225.130423,117.48822 224.456059,116.828271 223.611262,116.521319 L123.000032,79.9682283 L23.7481702,104.833573 L144.697541,154.346131 Z" id="path-60"></path>
        <filter x="-5.9%" y="-15.8%" width="111.7%" height="131.5%" filterUnits="objectBoundingBox" id="filter-61">
            <feGaussianBlur stdDeviation="7" in="SourceAlpha" result="shadowBlurInner1"></feGaussianBlur>
            <feOffset dx="-10" dy="-4" in="shadowBlurInner1" result="shadowOffsetInner1"></feOffset>
            <feComposite in="shadowOffsetInner1" in2="SourceAlpha" operator="arithmetic" k2="-1" k3="1" result="shadowInnerInner1"></feComposite>
            <feColorMatrix values="0 0 0 0 0.239215686   0 0 0 0 0.509803922   0 0 0 0 0.941176471  0 0 0 0.775418931 0" type="matrix" in="shadowInnerInner1"></feColorMatrix>
        </filter>
        <linearGradient x1="81.3171995%" y1="28.2233898%" x2="21.8040073%" y2="64.4637347%" id="linearGradient-62">
            <stop stop-color="#91D0FF" offset="0%"></stop>
            <stop stop-color="#6DB4FF" offset="48.1467136%"></stop>
            <stop stop-color="#2881EE" offset="100%"></stop>
        </linearGradient>
        <linearGradient x1="100%" y1="100%" x2="23.2289251%" y2="67.7586543%" id="linearGradient-63">
            <stop stop-color="#002964" offset="0%"></stop>
            <stop stop-color="#4270B4" offset="62.7469178%"></stop>
            <stop stop-color="#4F8DED" offset="100%"></stop>
        </linearGradient>
        <path d="M86.3184943,2.13771121 C89.1430619,7.1543315 90.7250756,12.7749571 90.7250756,18.7103696 C90.7250756,39.9026727 70.5557261,57.0824531 45.6754144,57.0824531 C20.7951027,57.0824531 0.625753177,39.9026727 0.625753177,18.7103696 C0.625753177,12.4294649 2.3973198,6.50097844 5.53823534,1.26780507 C25.4951028,4.47050486 65.2178231,4.26416765 86.3184943,2.13771121 Z" id="path-64"></path>
        <linearGradient x1="77.5993706%" y1="0%" x2="40.2696226%" y2="146.300552%" id="linearGradient-66">
            <stop stop-color="#032B67" offset="0%"></stop>
            <stop stop-color="#26529B" offset="100%"></stop>
        </linearGradient>
        <path d="M42.234116,0.634269767 C64.8683079,0.634269767 83.2168352,5.03566744 83.2168352,10.4651163 C83.2168352,15.8945651 64.8683079,20.2959628 42.234116,20.2959628 C19.5999241,20.2959628 1.25131239,15.8945651 1.25131239,10.4651163 C1.25131239,5.03566744 19.5999241,0.634269767 42.234116,0.634269767 Z" id="path-67"></path>
        <linearGradient x1="34.2329692%" y1="5.04199562%" x2="78.6018941%" y2="100%" id="linearGradient-69">
            <stop stop-color="#B1FFBE" offset="0%"></stop>
            <stop stop-color="#5CDB8E" offset="44.420721%"></stop>
            <stop stop-color="#149654" offset="100%"></stop>
        </linearGradient>
        <path d="M40.0441589,116.701866 C37.806046,101.001893 31.649186,78.3303412 13.1394896,53.9111759 C2.23600612,39.5266909 2.20041997,4.49726765 0.62574692,0.634208879 C9.18151224,3.6166186 24.5510865,11.3043958 40.0441589,32.9809852 C56.2852807,55.7039721 45.9821498,102.045105 40.0441589,116.701866 Z" id="path-70"></path>
        <filter x="-16.7%" y="-8.1%" width="133.4%" height="116.1%" filterUnits="objectBoundingBox" id="filter-72">
            <feGaussianBlur stdDeviation="6.5" in="SourceAlpha" result="shadowBlurInner1"></feGaussianBlur>
            <feOffset dx="0" dy="-6" in="shadowBlurInner1" result="shadowOffsetInner1"></feOffset>
            <feComposite in="shadowOffsetInner1" in2="SourceAlpha" operator="arithmetic" k2="-1" k3="1" result="shadowInnerInner1"></feComposite>
            <feColorMatrix values="0 0 0 0 0.221483195   0 0 0 0 0.778539541   0 0 0 0 0.610041349  0 0 0 1 0" type="matrix" in="shadowInnerInner1"></feColorMatrix>
        </filter>
        <linearGradient x1="78.6009371%" y1="-9.30161748%" x2="90.360851%" y2="88.8160124%" id="linearGradient-73">
            <stop stop-color="#B1FFBE" offset="0%"></stop>
            <stop stop-color="#5CDB8E" offset="44.420721%"></stop>
            <stop stop-color="#149654" offset="100%"></stop>
        </linearGradient>
        <path d="M69.5207425,76.3688791 C62.6062681,65.1580592 50.3896314,49.9652677 28.1673836,37.6466207 C15.0769281,30.390071 3.43305675,3.68839789 0.950319543,1.27875603 C8.46803224,0.639378013 22.7455918,1.26792304 41.7565076,12.5224617 C61.6851489,24.320197 69.1911249,63.1692786 69.5207425,76.3688791 Z" id="path-74"></path>
        <filter x="-13.4%" y="-12.3%" width="126.9%" height="124.6%" filterUnits="objectBoundingBox" id="filter-76">
            <feGaussianBlur stdDeviation="6.5" in="SourceAlpha" result="shadowBlurInner1"></feGaussianBlur>
            <feOffset dx="0" dy="-6" in="shadowBlurInner1" result="shadowOffsetInner1"></feOffset>
            <feComposite in="shadowOffsetInner1" in2="SourceAlpha" operator="arithmetic" k2="-1" k3="1" result="shadowInnerInner1"></feComposite>
            <feColorMatrix values="0 0 0 0 0.221483195   0 0 0 0 0.778539541   0 0 0 0 0.610041349  0 0 0 1 0" type="matrix" in="shadowInnerInner1"></feColorMatrix>
        </filter>
        <path d="M2.53218303,84.8819207 C7.98406681,72.8151469 18.2075723,56.0902738 38.765338,40.9191279 C50.8752668,31.9823277 59.0548269,3.87267336 61.2192522,1.14872727 C53.6492148,1.49481818 39.5083487,3.98715222 22.0130632,17.6788066 C3.67324185,32.0314757 1.17048192,71.6956173 2.53218303,84.8819207 Z" id="path-77"></path>
        <filter x="-15.3%" y="-11.1%" width="130.7%" height="122.2%" filterUnits="objectBoundingBox" id="filter-79">
            <feGaussianBlur stdDeviation="6.5" in="SourceAlpha" result="shadowBlurInner1"></feGaussianBlur>
            <feOffset dx="0" dy="-6" in="shadowBlurInner1" result="shadowOffsetInner1"></feOffset>
            <feComposite in="shadowOffsetInner1" in2="SourceAlpha" operator="arithmetic" k2="-1" k3="1" result="shadowInnerInner1"></feComposite>
            <feColorMatrix values="0 0 0 0 0.221483195   0 0 0 0 0.778539541   0 0 0 0 0.610041349  0 0 0 1 0" type="matrix" in="shadowInnerInner1"></feColorMatrix>
        </filter>
    </defs>
    <g id="Page-1" stroke="none" stroke-width="1" fill="none" fill-rule="evenodd">
        <g id="Artboard" transform="translate(-847.000000, -132.000000)">
            <g id="2_Team-V1" transform="translate(727.000000, 91.000000)">
                <g id="Artwork" transform="translate(117.000000, 39.000000)">
                    <g id="tree" opacity="0.248214286" style="mix-blend-mode: multiply;" transform="translate(257.989730, 343.598420) scale(-1, 1) rotate(31.000000) translate(-257.989730, -343.598420) translate(204.989730, 208.598420)">
                        <path d="M81.0681982,231.547892 C75.1442447,236.860479 52.6154842,226.235304 43.6833356,209.743085 C34.7511871,193.250867 51.3203378,187.380494 28.7833506,161.00335 C6.24636339,134.626207 -8.21466755,124.524318 5.46216229,81.046254 C19.1389921,37.5681903 0.244577708,13.4051089 25.2099467,2.06191143 C50.1753158,-9.28128604 64.5527872,28.3655109 61.6891294,61.4796738 C58.8254715,94.5938367 64.6826064,101.456655 89.1019713,98.0252459 C113.521336,94.5938367 92.9335455,143.20837 92.9335455,153.819998 C92.9335455,164.431626 107.740566,184.141423 104.668815,198.97022 C101.597065,213.799017 86.9921517,226.235304 81.0681982,231.547892 Z" id="leaves" fill="url(#linearGradient-1)"></path>
                        <path d="M66.8055093,185.319542 C66.8055093,177.174843 68.8353646,151.798048 79.8775638,136.34343" id="branch" stroke="url(#linearGradient-2)" stroke-width="3.49854227" stroke-linecap="round"></path>
                        <path d="M15.942995,137.79496 C15.942995,129.650261 38.5002516,123.932246 49.5424508,108.477628" id="branch" stroke="url(#linearGradient-2)" stroke-width="3.49854227" stroke-linecap="round" transform="translate(32.742723, 123.136294) scale(-1, 1) translate(-32.742723, -123.136294) "></path>
                        <path d="M94.3724473,269.696121 C94.3724473,266.23085 88.4854856,250.609975 82.8601194,232.511504 C65.2444282,175.836604 36.8490022,106.047549 36.8490022,57.6865915" id="branch" stroke="url(#linearGradient-2)" stroke-width="3.49854227" stroke-linecap="round"></path>
                    </g>
                    <g id="plant" opacity="0.353404018" style="mix-blend-mode: multiply;" transform="translate(436.805546, 337.302972) rotate(-1.000000) translate(-436.805546, -337.302972) translate(376.305546, 238.802972)">
                        <path d="M29.8190267,196.87153 C29.8190267,171.231657 50.9624524,91.8844858 79.5020161,48.4675942" id="stem" stroke="url(#linearGradient-2)" stroke-width="3.49854227" stroke-linecap="round"></path>
                        <path d="M54.7785071,63.6659339 C59.6686564,56.7017877 62.113731,48.9243598 62.113731,40.3336502 C62.113731,27.4475857 58.8296394,17.0013664 54.7785071,17.0013664 C50.7273748,17.0013664 47.4432831,27.4475857 47.4432831,40.3336502 C47.4432831,48.9243598 49.8883578,56.7017877 54.7785071,63.6659339 Z" id="leaf" fill="url(#linearGradient-3)" transform="translate(54.778507, 40.333650) rotate(-30.000000) translate(-54.778507, -40.333650) "></path>
                        <path d="M96.5998852,87.4725236 C101.490034,80.5083775 103.935109,72.7309495 103.935109,64.1402399 C103.935109,51.2541754 100.651017,40.8079561 96.5998852,40.8079561 C92.5487528,40.8079561 89.2646612,51.2541754 89.2646612,64.1402399 C89.2646612,72.7309495 91.7097359,80.5083775 96.5998852,87.4725236 Z" id="leaf" fill="url(#linearGradient-3)" transform="translate(96.599885, 64.140240) rotate(88.000000) translate(-96.599885, -64.140240) "></path>
                        <path d="M82.9411923,121.317155 C87.8313416,114.353009 90.2764163,106.575581 90.2764163,97.9848712 C90.2764163,85.0988068 86.9923246,74.6525875 82.9411923,74.6525875 C78.89006,74.6525875 75.6059684,85.0988068 75.6059684,97.9848712 C75.6059684,106.575581 78.051043,114.353009 82.9411923,121.317155 Z" id="leaf" fill="url(#linearGradient-3)" transform="translate(82.941192, 97.984871) rotate(91.000000) translate(-82.941192, -97.984871) "></path>
                        <path d="M71.8107666,154.137607 C76.7009159,147.173461 79.1459905,139.396033 79.1459905,130.805323 C79.1459905,117.919259 75.8618989,107.473039 71.8107666,107.473039 C67.7596343,107.473039 64.4755427,117.919259 64.4755427,130.805323 C64.4755427,139.396033 66.9206173,147.173461 71.8107666,154.137607 Z" id="leaf" fill="url(#linearGradient-3)" transform="translate(71.810767, 130.805323) rotate(91.000000) translate(-71.810767, -130.805323) "></path>
                        <path d="M94.4562283,47.3439914 C99.3463776,40.3798452 101.791452,32.6024173 101.791452,24.0117076 C101.791452,11.1256431 98.5073606,0.679423882 94.4562283,0.679423882 C90.4050959,0.679423882 87.1210043,11.1256431 87.1210043,24.0117076 C87.1210043,32.6024173 89.566079,40.3798452 94.4562283,47.3439914 Z" id="leaf" fill="url(#linearGradient-3)" transform="translate(94.456228, 24.011708) rotate(33.000000) translate(-94.456228, -24.011708) "></path>
                        <path d="M36.5799637,99.4698718 C41.470113,92.5057256 43.9151877,84.7282977 43.9151877,76.137588 C43.9151877,63.2515235 40.631096,52.8053043 36.5799637,52.8053043 C32.5288314,52.8053043 29.2447398,63.2515235 29.2447398,76.137588 C29.2447398,84.7282977 31.6898144,92.5057256 36.5799637,99.4698718 Z" id="leaf" fill="url(#linearGradient-3)" transform="translate(36.579964, 76.137588) rotate(-41.000000) translate(-36.579964, -76.137588) "></path>
                        <path d="M22.9212709,135.365693 C27.8114202,128.401547 30.2564948,120.624119 30.2564948,112.033409 C30.2564948,99.1473447 26.9724032,88.7011254 22.9212709,88.7011254 C18.8701386,88.7011254 15.586047,99.1473447 15.586047,112.033409 C15.586047,120.624119 18.0311216,128.401547 22.9212709,135.365693 Z" id="leaf" fill="url(#linearGradient-3)" transform="translate(22.921271, 112.033409) rotate(-47.000000) translate(-22.921271, -112.033409) "></path>
                    </g>
                    <g id="window-reflactions" transform="translate(210.236188, 88.484144)" opacity="0.472712054" stroke="url(#linearGradient-4)" stroke-linecap="round" stroke-linejoin="round" stroke-width="4.66472303">
                        <path d="M0.312845304,49.7885835 L63.8215775,0.525822055" id="Line"></path>
                        <path d="M0.938535912,74.5243129 L51.0309798,35.668363" id="Line-Copy"></path>
                        <path d="M219.930249,106.236786 L283.438981,56.974025" id="Line-Copy-3"></path>
                        <path d="M220.555939,130.972516 L270.648383,92.116566" id="Line-Copy-2"></path>
                    </g>
                    <g id="guy-on-chair" transform="translate(432.356354, 165.228330)">
                        <path d="M234.508954,104.469228 L94.6658702,78.0127167 C54.0829968,138.29204 34.8788451,189.128087 37.0536287,230.520444 C62.6940131,241.293266 112.055604,258.341131 185.138189,281.664244 L243.941835,121.359815 C246.350675,114.79351 243.052122,107.490904 236.574497,105.049281 C235.903692,104.796152 235.21219,104.602183 234.508954,104.469228 Z" id="" fill="url(#linearGradient-5)"></path>
                        <g id="neck" transform="translate(54.435083, 74.841438)">
                            <mask id="mask-8" fill="white">
                                <use xlink:href="#path-7"></use>
                            </mask>
                            <use id="" fill="url(#linearGradient-6)" xlink:href="#path-7"></use>
                            <path d="M75.5400002,56.6490673 C63.6183453,35.2024923 54.8732832,21.7881848 49.304814,16.4061449 C43.7363449,11.0241049 57.0211932,5.62039406 89.1593591,0.195012255 L75.5400002,62.7220276 L75.5400002,56.6490673 Z" id="Path-3" fill="#B60808" style="mix-blend-mode: multiply;" opacity="0.358761161" mask="url(#mask-8)"></path>
                        </g>
                        <path d="M84.9413324,36.8770858 C80.6261789,39.8227078 84.307586,51.6773074 79.6363363,58.4445006 C77.0824237,62.1444482 71.7104788,64.2018723 69.2300066,65.6743814 C62.2128082,69.8401218 69.4238142,72.8136051 70.8739304,75.2930892 C72.324203,77.7725734 71.1681614,83.3743357 70.0821972,87.7892753 C68.9963893,92.2042148 65.1436212,102.152687 69.2743524,104.37564 C73.4050054,106.598593 98.7666702,116.304162 106.10039,113.339736 C113.434109,110.37531 116.056379,95.5253175 117.863921,94.559315 C119.671619,93.59314 120.941145,94.6127949 122.609862,95.0346825 C126.953406,96.1324871 130.875861,93.664734 132.96379,90.1524837 C135.328275,86.1749581 138.690111,87.99017 136.872401,82.5546266 C134.068134,74.169666 117.815195,41.1427129 111.357442,38.7684634 C104.89969,36.3941277 91.6156523,32.3208558 84.9413324,36.8770858 Z" id="" fill="url(#linearGradient-9)"></path>
                        <g id="">
                            <use fill="url(#linearGradient-10)" xlink:href="#path-12"></use>
                            <use fill="url(#linearGradient-11)" xlink:href="#path-12"></use>
                        </g>
                        <path d="M114.569081,81.8770243 C113.308314,84.7248203 108.551189,91.2899683 104.258325,93.6612209 C99.9648365,96.0325687 90.9217301,96.177463 89.0665575,93.4740856 C87.2113848,90.7707082 78.7852094,78.5247146 71.1906394,76.605222 C70.8094061,78.1551533 69.7688826,80.791649 68.0691315,84.514852 C73.9470568,86.9920402 77.3610124,89.3221934 78.3108733,91.5053118 C79.7356334,94.7799894 80.5009782,92.5859302 79.07797,94.0410095 C77.6549619,95.4960888 70.2245731,94.3774154 69.660513,88.6987579 C67.5169595,93.2207347 65.2144807,105.426342 66.0261891,108.215106 C66.8378349,111.003964 71.510117,112.282849 76.1210814,112.583007 C80.7319831,112.883071 97.1604912,115.424715 101.344484,114.557822 C105.529103,113.69093 110.844345,114.189974 114.345084,103.914228 C117.845823,93.6383879 117.067464,86.9810042 121.635631,78.2289799 C126.203798,69.4769556 115.829222,79.0291808 114.569081,81.8770243 Z" id="" fill="url(#linearGradient-13)"></path>
                        <g id="shirt" transform="translate(0.000000, 121.775899)">
                            <mask id="mask-16" fill="white">
                                <use xlink:href="#path-15"></use>
                            </mask>
                            <g id="">
                                <use fill="#917BFF" fill-rule="evenodd" xlink:href="#path-15"></use>
                                <use fill="url(#linearGradient-14)" fill-rule="evenodd" xlink:href="#path-15"></use>
                                <use fill="black" fill-opacity="1" filter="url(#filter-17)" xlink:href="#path-15"></use>
                            </g>
                            <path d="M84.0389849,3.50397202 C69.6650909,18.4186729 98.0205207,26.3655315 109.598862,22.3921022 C117.317756,19.7431494 125.508235,13.447106 134.170298,3.50397202 C112.344112,-12.960838 98.532347,-17.0770405 92.7350022,-8.84463548 C84.0389849,3.50397202 98.412879,-11.4107289 84.0389849,3.50397202 Z" id="Path-6" fill="url(#linearGradient-18)" style="mix-blend-mode: multiply;" opacity="0.585435268" mask="url(#mask-16)"></path>
                            <path d="M63.5538907,138.444558 C73.7896681,138.444558 140.337961,127.273695 140.337961,118.206177 C140.337961,112.161165 138.627626,87.8446164 135.206956,45.2565318" id="Path-8" fill="url(#linearGradient-19)" style="mix-blend-mode: multiply;" opacity="0.546540179" mask="url(#mask-16)"></path>
                            <path d="M-29.6765009,99.1182431 C-25.0407839,99.1182431 -3.60724085,126.643843 15.9746641,117.379198 C39.6300879,106.187278 53.4046793,64.7476378 53.4046793,59.7867397 C53.4046793,55.9915742 59.6153042,42.5328633 57.2503096,27.8687018 C56.3156337,22.0732388 52.0336756,12.8798569 44.4044352,0.288556117" id="Path-8-Copy" fill="url(#linearGradient-19)" style="mix-blend-mode: multiply;" opacity="0.546540179" mask="url(#mask-16)"></path>
                        </g>
                    </g>
                    <g id="guy-standin" transform="translate(238.392265, 0.323467)">
                        <path d="M86.3972205,85.6989894 C88.9161014,105.157227 89.3988799,116.480103 87.845556,119.667615 C85.5155455,124.449013 90.0284147,146.941497 104.39818,148.245545 C118.767946,149.549508 126.301011,143.342905 126.865892,128.167307 C127.430773,112.991708 128.330588,107.141042 130.651207,100.425748 C132.971826,93.7103689 89.7232861,65.8885814 87.845556,71.0320814 C86.5936042,74.4611385 86.1109245,79.3501649 86.3972205,85.6989894 Z" id="" fill="url(#linearGradient-20)"></path>
                        <path d="M145.459431,40.9964214 C145.459431,45.3228698 146.026287,58.8291292 145.597484,62.2516383 C145.16868,65.6742342 144.827334,70.7744575 145.212409,77.3634044 C145.597484,83.9524383 142.221928,100.15809 138.453589,106.029221 C136.203755,109.534538 127.286273,116.292316 118.539008,115.342933 C108.169312,114.217418 96.8308673,104.067369 95.6179686,98.9920839 C93.3820107,89.6355342 95.2347857,81.3787789 88.7913137,76.4068085 C82.3478417,71.4348381 77.652309,66.8166057 78.2316384,59.1408983 C78.8109678,51.4652778 85.4278112,33.1930693 88.7913137,32.4252032 C92.1548161,31.6574239 145.459431,36.6700598 145.459431,40.9964214 Z" id="" fill="url(#linearGradient-21)"></path>
                        <g id="">
                            <use fill="url(#linearGradient-22)" xlink:href="#path-24"></use>
                            <use fill="url(#linearGradient-23)" xlink:href="#path-24"></use>
                        </g>
                        <g id="">
                            <use fill="url(#linearGradient-25)" xlink:href="#path-27"></use>
                            <use fill="url(#linearGradient-26)" xlink:href="#path-27"></use>
                        </g>
                        <path d="M26.1887597,313.228079 C27.9738049,321.2439 33.8807735,329.80684 35.8706586,331.656167 C37.8605149,333.50541 45.0999354,335.79749 46.4687675,335.3524 C47.8375996,334.907353 51.4396379,331.855255 51.6026578,328.283234 C51.7657065,324.711214 48.3103402,322.698749 48.2865376,317.420736 C48.2627639,312.142764 39.6034236,304.487257 39.6034236,299.817895 C39.6034236,295.148576 24.4037432,305.212216 26.1887597,313.228079 Z" id="" fill="url(#linearGradient-21)"></path>
                        <path d="M248.74562,302.230455 C254.115866,309.45165 257.61229,310.715195 259.625215,312.868567 C261.638096,315.021938 266.244575,322.624372 267.955076,321.35727 C269.665662,320.090212 271.437123,317.594285 268.775313,312.868567 C266.11346,308.142939 262.082429,303.158649 263.481741,300.657227 C264.88114,298.155896 271.711701,290.762274 277.413167,289.0458 C283.114461,287.329281 285.008489,288.437962 285.576555,287.515712 C286.144707,286.593643 278.758427,285.254895 275.714928,284.908827 C272.67117,284.562758 268.358092,284.165533 262.139201,284.908827 C257.993245,285.404356 255.105254,283.65726 253.475184,279.667676 C246.74202,289.895458 245.165441,297.41634 248.74562,302.230455 Z" id="" fill="url(#linearGradient-21)"></path>
                        <g id="shirt" transform="translate(0.000000, 120.507400)">
                            <mask id="mask-30" fill="white">
                                <use xlink:href="#path-29"></use>
                            </mask>
                            <g id="">
                                <use fill="url(#linearGradient-28)" xlink:href="#path-29"></use>
                                <use fill-opacity="0.558367301" fill="#AFFFA7" xlink:href="#path-29"></use>
                            </g>
                            <path d="M38.2290598,91.5698562 L61.8066988,59.8062849 C67.6291948,128.477647 57.544833,174.706846 31.5536132,198.493882 C24.683909,157.221217 28.5085012,135.649372 31.5536132,117.614136 C32.8867236,109.718544 35.1118724,101.037118 38.2290598,91.5698562 Z" id="Path-4" fill="url(#linearGradient-31)" style="mix-blend-mode: multiply;" opacity="0.400000006" mask="url(#mask-30)"></path>
                            <path d="M46.7154229,206.302485 C55.5170751,180.163516 95.0698061,94.0712728 111.997801,81.7953266 C128.925797,69.5193805 130.200961,53.675379 129.563379,32.6456507 C128.925797,11.6159225 89.3881566,-30.2829143 68.717667,-14.4350885 C48.0471774,1.41273732 -7.29042837,30.6520672 -13.3418,79.6818445 C-19.3931717,128.711622 6.37797534,203.916133 18.0204522,196.481728 C29.6629292,189.047323 37.9137707,232.441454 46.7154229,206.302485 Z" id="Path-5" fill="url(#linearGradient-32)" style="mix-blend-mode: multiply;" opacity="0.713058036" mask="url(#mask-30)"></path>
                        </g>
                        <g id="">
                            <use fill="url(#linearGradient-33)" xlink:href="#path-34"></use>
                            <use fill-opacity="0.601449275" fill="#79F396" xlink:href="#path-34"></use>
                        </g>
                    </g>
                    <g id="girl-and-desk" transform="translate(0.033149, 58.674419)">
                        <path d="M12.7348789,192.831866 L139.705747,161.733685 C163.188437,225.913884 173.842384,278.700136 171.667588,320.092643 C146.027147,330.86538 107.566834,344.832908 56.2864741,361.995025 L3.85566219,209.332638 C1.58345799,202.716355 5.03255369,195.485721 11.5593789,193.182204 C11.9453562,193.046063 12.3375954,192.929082 12.7348789,192.831866 Z" id="chair" fill="url(#linearGradient-35)"></path>
                        <path d="M157.264565,170.415821 C154.546132,179.14334 163.377152,203.784396 177.406562,215.825756 C191.436067,227.867117 146.311849,225.819821 146.285362,212.394781 C146.258923,198.969742 159.982856,161.688439 157.264565,170.415821 Z" id="hair" fill="#316EEA"></path>
                        <g id="arm">
                            <use fill="url(#linearGradient-36)" xlink:href="#path-38"></use>
                            <use fill="url(#linearGradient-37)" xlink:href="#path-38"></use>
                        </g>
                        <g id="shirt">
                            <use fill="url(#linearGradient-36)" xlink:href="#path-40"></use>
                            <use fill="url(#linearGradient-39)" xlink:href="#path-40"></use>
                        </g>
                        <polyline id="shadow" fill="url(#linearGradient-41)" opacity="0.196930804" style="mix-blend-mode: multiply;" points="191.184472 377.751202 344.353089 352.65608 460.892506 404.41442 292.177197 449.782773"></polyline>
                        <g id="neck" transform="translate(121.980663, 156.659619)">
                            <mask id="mask-44" fill="white">
                                <use xlink:href="#path-43"></use>
                            </mask>
                            <use id="" fill="url(#linearGradient-42)" xlink:href="#path-43"></use>
                            <path d="M-1.3683716,51.1126955 C22.0299834,31.2395454 36.4291391,21.3029703 41.8290955,21.3029703 C47.2290518,21.3029703 32.8298961,17.9715296 -1.3683716,11.3086481 L-1.3683716,51.1126955 Z" id="Path" fill="#B60808" style="mix-blend-mode: multiply;" opacity="0.410546875" mask="url(#mask-44)"></path>
                        </g>
                        <path d="M161.010805,113.017416 C163.07602,119.62802 162.844847,126.95896 166.85202,133.271937 C170.859058,139.58483 176.13839,145.098439 177.54063,147.903425 C178.943005,150.708411 171.916465,153.200364 171.916465,155.708644 C171.916465,158.217006 176.599113,175.670141 174.093312,177.33803 C172.665326,181.235741 146.368609,186.638504 139.728595,182.767918 C133.874946,182.767918 124.853131,177.562067 119.316813,164.76976 C113.780495,151.977537 113.525198,120.914141 119.316813,113.017416 C125.108428,105.120774 158.945658,106.406895 161.010805,113.017416 Z" id="face" fill="url(#linearGradient-45)"></path>
                        <g id="document" transform="translate(200.817680, 289.852008)">
                            <mask id="mask-48" fill="white">
                                <use xlink:href="#path-47"></use>
                            </mask>
                            <use id="" fill="url(#linearGradient-46)" xlink:href="#path-47"></use>
                            <polygon id="Path-2" fill="url(#linearGradient-49)" opacity="0.458035714" style="mix-blend-mode: multiply;" mask="url(#mask-48)" points="125.503522 56.4042992 109.929917 -0.627222478 135.01821 -0.627222478"></polygon>
                            <path d="M14.5189508,42.5642216 C14.5189508,47.115178 25.3286935,53.7201696 38.0378105,59.5019679 C45.4066957,62.8543178 44.3909895,70.6365782 47.5977705,70.6365782 C53.4227816,70.6365782 35.6547371,79.1576457 -5.70636307,96.1997807 C-7.94947329,73.154528 -7.94947329,58.6248048 -5.70636307,52.6106112 C-2.03965085,42.7794772 14.5189508,40.0647228 14.5189508,42.5642216 Z" id="Path-7" fill="url(#linearGradient-50)" opacity="0.400000006" style="mix-blend-mode: multiply;" mask="url(#mask-48)"></path>
                        </g>
                        <path d="M192.299745,336.428049 C195.932277,336.428049 200.331037,334.480288 206.755075,332.992173 C213.179241,331.504059 217.230946,329.138784 219.203253,331.339123 C219.974012,332.198746 218.688094,334.291332 217.748274,334.862328 C216.808391,335.433279 216.310208,336.272702 211.82395,337.954167 C207.660751,339.514516 205.250062,340.244588 206.002569,341.698383 C206.755075,343.152222 213.575502,344.417372 215.76014,345.003774 C218.547881,345.752004 222.740884,347.211482 226.73917,347.892095 C231.207623,348.652757 236.144963,348.737201 236.712391,349.069249 C237.787319,349.69845 239.359216,352.065767 236.712391,352.821146 C236.087014,352.999579 231.564889,353.091704 226.064844,352.821146 C220.191512,352.532163 214.805833,351.391104 215.76014,352.821146 C215.986447,353.160165 221.402633,354.280135 227.351911,354.280135 C230.877479,354.280135 238.01235,354.724732 238.463688,354.724732 C240.095193,354.724732 240.914074,356.986116 239.434141,358.098939 C239.088809,358.358708 232.204179,359.148584 226.73917,359.352457 C220.448709,359.587097 214.881715,359.009486 214.815853,359.352457 C214.767796,359.602592 221.393698,360.447431 227.351911,360.159958 C232.172843,359.927226 234.823625,359.544875 235.72477,360.159958 C236.626042,360.774907 236.397692,362.418057 235.72477,363.157541 C235.444981,363.464994 231.088597,364.869241 226.73917,365.161332 C220.630916,365.571564 213.994292,364.854767 213.935577,365.161332 C213.779664,365.974516 225.067075,366.489793 226.73917,366.489793 C229.119864,366.489793 228.819845,369.610624 226.064844,370.271569 C222.609031,371.100647 215.459226,371.034672 212.20515,371.034672 C208.951137,371.034672 204.061406,370.271569 199.168676,368.430095 C194.275945,366.588577 187.742774,364.122431 183.601594,363.157541 C179.126121,362.114734 182.339991,347.771734 185.438729,340.245964 C188.537466,332.720195 188.667213,336.428049 192.299745,336.428049 Z" id="hand" fill="url(#linearGradient-51)"></path>
                        <g id="arm">
                            <use fill="url(#linearGradient-36)" xlink:href="#path-53"></use>
                            <use fill="url(#linearGradient-52)" xlink:href="#path-53"></use>
                        </g>
                        <g id="glasses" transform="translate(118.852210, 118.604651)">
                            <polygon id="" fill="#8C2D14" points="32.224765 19.1267011 0.990543315 25.0917209 0.990543315 27.4612871 33.3366485 24.9653683"></polygon>
                            <path d="M40.5399561,31.5225285 C36.9338809,31.9067569 33.5226382,27.5550951 32.9270508,21.8108753 C32.3314634,16.06663 34.7755861,11.0911966 38.3816614,10.7069937 C41.9877366,10.32274 45.3989792,14.6744017 45.9945666,20.4186216 C46.590154,26.1628668 44.1460313,31.138351 40.5399561,31.5225285 Z" id="" stroke="#8C2214" stroke-width="2.33236152" fill-opacity="0" fill="#000000"></path>
                            <path d="M57.9564471,21.289448 C54.6938272,21.6370681 51.6074544,17.69983 51.0685783,12.5027068 C50.5297511,7.30551311 52.7410706,2.80391163 56.0037555,2.45629154 C59.2663754,2.10869493 62.3527483,6.04588605 62.8915755,11.2430328 C63.4304515,16.440156 61.2190832,20.9418044 57.9564471,21.289448 Z" id="" stroke="#8C2214" stroke-width="2.33236152" fill-opacity="0" fill="#000000"></path>
                            <path d="M45.3387728,18.413329 C45.3387728,16.9643918 49.3738966,14.1230848 51.3980407,15.553129" id="" stroke="#8C3514" stroke-width="2.33236152"></path>
                        </g>
                        <g id="hair">
                            <use fill="url(#linearGradient-54)" xlink:href="#path-57"></use>
                            <use fill="url(#linearGradient-55)" xlink:href="#path-57"></use>
                            <use fill="url(#linearGradient-56)" xlink:href="#path-57"></use>
                        </g>
                        <g id="documents" transform="translate(197.689227, 391.331924)" fill="url(#linearGradient-58)">
                            <path d="M0.588127898,28.4532902 L83.8426265,13.9534812 C129.796025,43.0635077 152.316044,57.7118536 151.402838,57.8987085 C150.103754,58.1644085 58.1727909,74.4596021 51.962739,76.1486183 C52.5439405,74.6450681 35.4146578,58.7423959 0.588127898,28.4532902 Z" id=""></path>
                            <polygon id="" points="50.0176268 5.93435105 137.021283 0 184.85152 42.3618259 76.4578561 49.9419315"></polygon>
                        </g>
                        <g id="laptop" transform="translate(316.570442, 249.260042)">
                            <g id="">
                                <use fill="url(#linearGradient-59)" fill-rule="evenodd" xlink:href="#path-60"></use>
                                <use fill="black" fill-opacity="1" filter="url(#filter-61)" xlink:href="#path-60"></use>
                            </g>
                            <path d="M6.15624497,1.25695877 L117.642924,37.8276374 C120.923254,38.9035655 123.357301,41.7159894 123.982942,45.1529302 L143.931295,154.745004 L23.1225716,105.067085 L1.33576435,5.7031649 C0.885912829,3.65153594 2.16201633,1.6187093 4.18598529,1.16263636 C4.83935145,1.01548097 5.51957224,1.04795772 6.15624497,1.25695877 Z" id="" fill="url(#linearGradient-62)"></path>
                            <path d="M62.0823511,82.0275368 C67.8281993,84.868292 73.8865888,84.8627537 76.3861414,79.6680006 C78.8855501,74.4731772 74.3767711,68.5933687 68.6309228,65.7525431 C62.8850746,62.911741 57.4523432,62.9173732 54.9528769,68.1121027 C52.4533818,73.3069027 56.3365028,79.1867347 62.0823511,82.0275368 Z" id="" fill="#E2ECFF"></path>
                        </g>
                        <g id="glasses" transform="translate(325.330110, 0.000000)">
                            <path d="M15.3916079,9.87177398 C15.3797929,7.61278878 17.1995562,5.77080205 19.4517149,5.75760752 L31.7001441,5.68584872 C33.9542943,5.67264252 35.7506802,7.47968599 35.7121068,9.74415321 L35.6027322,16.1650303 C35.5643278,18.4195762 33.7150284,20.2238495 31.4437385,20.1946213 L19.5339783,20.0413597 C17.2754339,20.0122955 15.4349597,18.1604744 15.423129,15.8984797 L15.3916079,9.87177398 Z" id="" stroke="#FFFFFF" stroke-width="2.9154519"></path>
                            <path d="M48.4942484,9.80944796 C48.4697772,7.55136312 50.2690621,5.72155752 52.5358549,5.72247195 L62.9825545,5.72668619 C65.2391434,5.7275965 67.0510942,7.5598274 67.0297616,9.80837168 L66.9688773,16.2258211 C66.9474991,18.4791635 65.1059708,20.2676866 62.8401939,20.2202747 L52.6938189,20.0079595 C50.4349882,19.960693 48.5840388,18.0948447 48.5595349,15.8337516 L48.4942484,9.80944796 Z" id="" stroke="#FFFFFF" stroke-width="2.9154519"></path>
                            <path d="M35.6363237,12.05074 L48.1501183,12.05074" id="" stroke="#FFFFFF" stroke-width="2.33236152" fill-opacity="0" fill="#000000"></path>
                            <polygon id="" fill="#FFFFFF" points="1.09758646 1.25654461 16.3449458 8.764063 16.3449458 16.1154038 2.54429828 6.35445856"></polygon>
                        </g>
                        <path d="M172.181027,160.373252 C172.795469,160.052413 172.602253,161.472041 172.86955,162.305266 C173.136807,163.138492 173.318803,163.269613 173.406772,163.812968 C170.85847,165.143517 166.42331,165.405906 163.453533,163.624945 C162.85876,163.268259 162.33904,162.975829 162.831916,162.484694 C163.324739,161.993524 163.93884,162.301282 164.601557,162.500064 C166.914399,163.19358 170.593105,161.202375 172.181027,160.373252 Z" id="mouth" fill="#8F2E1A"></path>
                        <g id="Plant" transform="translate(19.367403, 283.509514)">
                            <g id="Pot" transform="translate(26.027624, 113.530655)">
                                <g id="pot" transform="translate(0.877072, 6.976744)">
                                    <mask id="mask-65" fill="white">
                                        <use xlink:href="#path-64"></use>
                                    </mask>
                                    <use id="Ellipse-2" fill="url(#linearGradient-63)" xlink:href="#path-64"></use>
                                </g>
                                <g id="inside" transform="translate(4.631215, 0.000000)">
                                    <mask id="mask-68" fill="white">
                                        <use xlink:href="#path-67"></use>
                                    </mask>
                                    <use id="Ellipse-1" fill="url(#linearGradient-66)" xlink:href="#path-67"></use>
                                </g>
                            </g>
                            <g id="leaves">
                                <g id="leaf">
                                    <g transform="translate(29.407459, 0.000000)">
                                        <g id="Shape-2">
                                            <mask id="mask-71" fill="white">
                                                <use xlink:href="#path-70"></use>
                                            </mask>
                                            <g>
                                                <use fill="url(#linearGradient-69)" fill-rule="evenodd" xlink:href="#path-70"></use>
                                                <use fill="black" fill-opacity="1" filter="url(#filter-72)" xlink:href="#path-70"></use>
                                            </g>
                                            <path d="M38.7945078,109.422977 L23.5716436,36.3998596 C35.1372643,56.0465324 39.5499809,77.410737 38.7945078,109.422977 Z M23.5716436,36.3998596 L22.5572759,31.5340022 L20.9670928,32.1882047 C21.8726953,33.5854311 22.7406335,34.9882118 23.5716436,36.3998596 Z M38.7945078,109.422977 C38.7389427,111.777479 38.6554198,114.189582 38.5447286,116.662841 L40.2747179,116.523451 L38.7945078,109.422977 Z" id="Shape-3" stroke="#489C71" stroke-width="1.74927114" fill-opacity="0" fill="#000000" opacity="0.5" style="mix-blend-mode: multiply;" mask="url(#mask-71)"></path>
                                        </g>
                                    </g>
                                    <g transform="translate(0.000000, 56.448203)">
                                        <g id="Shape-2">
                                            <mask id="mask-75" fill="white">
                                                <use xlink:href="#path-74"></use>
                                            </mask>
                                            <g>
                                                <use fill="url(#linearGradient-73)" fill-rule="evenodd" xlink:href="#path-74"></use>
                                                <use fill="black" fill-opacity="1" filter="url(#filter-76)" xlink:href="#path-74"></use>
                                            </g>
                                            <path d="M65.5459777,70.1412639 L30.9383636,21.3639502 C45.634726,32.1603168 55.8140189,46.5580372 65.5459727,70.1412517 Z M30.9383636,21.3639502 L28.0520057,17.2958054 L26.8589972,18.5332812 C28.2573286,19.4503986 29.6161318,20.3926011 30.9383708,21.3639555 Z M65.5459727,70.1412517 C66.4421554,72.3129501 67.3345446,74.562541 68.2263185,76.8943849 L69.7565822,76.0758532 L65.5459777,70.1412639 Z" id="Shape-3" stroke="#489C71" stroke-width="1.74927114" fill-opacity="0" fill="#000000" opacity="0.5" style="mix-blend-mode: multiply;" mask="url(#mask-75)"></path>
                                        </g>
                                    </g>
                                    <g transform="translate(71.954420, 49.471459)">
                                        <g id="Shape-2">
                                            <mask id="mask-78" fill="white">
                                                <use xlink:href="#path-77"></use>
                                            </mask>
                                            <g>
                                                <use fill="url(#linearGradient-69)" fill-rule="evenodd" xlink:href="#path-77"></use>
                                                <use fill="black" fill-opacity="1" filter="url(#filter-79)" xlink:href="#path-77"></use>
                                            </g>
                                            <path d="M31.8423418,24.8793202 C33.0314452,23.7430952 34.2604491,22.6309439 35.5317611,21.5384732 L34.189444,20.4645378 L31.8423418,24.8793202 Z M3.59578591,78.0096853 L0.174315939,84.4453 L1.79672057,85.0614786 C2.38447917,82.631182 2.98330727,80.282154 3.59578591,78.0096853 Z" id="Shape-3" stroke="#489C71" stroke-width="1.74927114" fill-opacity="0" fill="#000000" opacity="0.5" style="mix-blend-mode: multiply;" mask="url(#mask-78)"></path>
                                        </g>
                                    </g>
                                </g>
                            </g>
                        </g>
                    </g>
                </g>
            </g>
        </g>
    </g>
</svg>